HIERARCHY
ROOT Hips
{
 OFFSET 0.000000 0.000000 0.000000
 CHANNELS 6 Xposition Yposition Zposition Yrotation Xrotation Zrotation
 JOINT Chest
 {
  OFFSET 0.000000 9.585900 0.002600
  CHANNELS 3 Yrotation Xrotation Zrotation
  JOINT Chest2
  {
   OFFSET 0.000000 9.601200 -0.005300
   CHANNELS 3 Yrotation Xrotation Zrotation
   JOINT Chest3
   {
    OFFSET 0.000000 9.561800 0.000000
    CHANNELS 3 Yrotation Xrotation Zrotation
    JOINT Chest4
    {
     OFFSET 0.000000 9.552100 0.000000
     CHANNELS 3 Yrotation Xrotation Zrotation
     JOINT Neck
     {
      OFFSET 0.000000 14.453000 0.000000
      CHANNELS 3 Yrotation Xrotation Zrotation
      JOINT Head
      {
       OFFSET 0.000000 8.936500 -0.011300
       CHANNELS 3 Yrotation Xrotation Zrotation
       End Site
       {
        OFFSET 0.000000 17.073600 -0.006000
       }
      }
     }
     JOINT RightCollar
     {
      OFFSET -2.921100 9.558500 0.000000
      CHANNELS 3 Yrotation Xrotation Zrotation
      JOINT RightShoulder
      {
       OFFSET -13.519700 0.000000 0.000000
       CHANNELS 3 Yrotation Xrotation Zrotation
       JOINT RightElbow
       {
        OFFSET 0.000000 -29.696600 0.000000
        CHANNELS 3 Yrotation Xrotation Zrotation
        JOINT RightWrist
        {
         OFFSET 0.000000 -24.004700 0.000000
         CHANNELS 3 Yrotation Xrotation Zrotation
         End Site
         {
          OFFSET 0.000000 -17.728500 0.000000
         }
        }
       }
      }
     }
     JOINT LeftCollar
     {
      OFFSET 2.921100 9.558500 0.000000
      CHANNELS 3 Yrotation Xrotation Zrotation
      JOINT LeftShoulder
      {
       OFFSET 13.519700 0.000000 0.000000
       CHANNELS 3 Yrotation Xrotation Zrotation
       JOINT LeftElbow
       {
        OFFSET 0.000000 -29.696600 0.000000
        CHANNELS 3 Yrotation Xrotation Zrotation
        JOINT LeftWrist
        {
         OFFSET 0.000000 -24.004700 0.000000
         CHANNELS 3 Yrotation Xrotation Zrotation
         End Site
         {
          OFFSET 0.000000 -17.728500 0.000000
         }
        }
       }
      }
     }
    }
   }
  }
 }
 JOINT RightHip
 {
  OFFSET -7.771700 -0.012900 -0.001300
  CHANNELS 3 Yrotation Xrotation Zrotation
  JOINT RightKnee
  {
   OFFSET 0.000000 -40.869800 0.001200
   CHANNELS 3 Yrotation Xrotation Zrotation
   JOINT RightAnkle
   {
    OFFSET 0.000000 -39.717900 0.002100
    CHANNELS 3 Yrotation Xrotation Zrotation
    JOINT RightToe
    {
     OFFSET 0.000000 -4.965400 11.033500
     CHANNELS 3 Yrotation Xrotation Zrotation
     End Site
     {
      OFFSET 0.000000 -1.423100 5.872300
     }
    }
   }
  }
 }
 JOINT LeftHip
 {
  OFFSET 7.771700 -0.012900 -0.001300
  CHANNELS 3 Yrotation Xrotation Zrotation
  JOINT LeftKnee
  {
   OFFSET 0.000000 -40.869800 0.001200
   CHANNELS 3 Yrotation Xrotation Zrotation
   JOINT LeftAnkle
   {
    OFFSET 0.000000 -39.717900 0.002100
    CHANNELS 3 Yrotation Xrotation Zrotation
    JOINT LeftToe
    {
     OFFSET 0.000000 -4.965400 11.033500
     CHANNELS 3 Yrotation Xrotation Zrotation
     End Site
     {
      OFFSET 0.000000 -1.423100 5.872300
     }
    }
   }
  }
 }
}
MOTION
Frames: 9
Frame Time: 0.008333
-17.833489 54.859965 27.260972 -175.015483 -32.397112 -10.625719 -0.136404 13.352125 5.478604 -0.093478 7.753522 2.079917 -0.085136 9.701350 2.604173 -0.121642 7.761129 2.081114 -2.813245 19.490837 -0.783400 -2.812738 -5.080814 -0.191204 0.909890 5.654434 -2.181754 -18.689867 -8.324287 7.389204 9.921598 -78.601274 3.780667 9.533345 -10.657331 -11.818406 -8.909269 3.900817 -3.677321 3.423180 -2.766985 -1.938696 -70.584283 -77.460605 76.471575 12.727888 -12.368168 1.190852 -19.552309 -34.397052 1.199761 8.746848 86.564998 3.606314 -0.475456 -16.774459 3.450817 -0.088896 0.456128 -0.044767 -14.127029 -45.816255 12.178138 169.148631 79.673615 163.455845 -2.334005 -15.867227 3.267760 -0.768021 -2.570295 -0.354310
-17.828698 54.875965 27.255843 -175.038975 -32.413773 -10.638306 -0.114036 13.371695 5.503291 -0.100834 7.751917 2.078719 -0.099262 9.708091 2.601444 -0.104939 7.754411 2.078448 -2.838600 19.459577 -0.820746 -2.874121 -5.172794 -0.274335 0.915631 5.679076 -2.173821 -18.710118 -8.348924 7.418938 9.575252 -78.637009 4.068732 9.537334 -10.641169 -11.801049 -8.930845 3.927267 -3.685387 3.438865 -2.785977 -1.999038 -70.734253 -77.441532 76.652752 12.774646 -12.349609 1.195511 -19.560408 -34.375754 1.225389 8.719999 86.568424 3.578981 -0.476981 -16.774819 3.444782 -0.081095 0.453498 -0.045639 -14.134435 -45.794295 12.214345 169.190134 79.674517 163.494268 -2.301919 -15.848948 3.271923 -0.796836 -2.591914 -0.364337
-17.827042 54.889988 27.251755 -175.045046 -32.416814 -10.639213 -0.109227 13.376131 5.507231 -0.107836 7.758202 2.077998 -0.100138 9.715172 2.600012 -0.097503 7.741296 2.077674 -2.898947 19.398390 -0.896182 -2.885278 -5.226818 -0.317935 0.915960 5.711580 -2.163726 -18.729954 -8.375576 7.445971 9.246650 -78.654215 4.359354 9.527052 -10.635566 -11.802212 -8.967615 3.962099 -3.695961 3.464135 -2.804277 -2.100020 -70.988984 -77.385689 76.936110 12.816978 -12.336500 1.197865 -19.594218 -34.374779 1.222888 8.806830 86.575206 3.663387 -0.452859 -16.781206 3.422564 -0.080072 0.452968 -0.046211 -14.149534 -45.786739 12.227770 169.213541 79.672444 163.510334 -2.288797 -15.850131 3.270172 -0.805385 -2.595884 -0.368220
-17.825004 54.902363 27.249202 -175.053329 -32.407383 -10.638497 -0.108996 13.380185 5.506991 -0.108588 7.759080 2.077737 -0.096042 9.710042 2.601905 -0.103676 7.748528 2.075992 -2.933515 19.331463 -0.959965 -2.887490 -5.282189 -0.356384 0.924676 5.735728 -2.153778 -18.742221 -8.402723 7.466588 8.919323 -78.668374 4.648306 9.555767 -10.633661 -11.781916 -8.985733 3.974796 -3.701699 3.489431 -2.820492 -2.166590 -71.201953 -77.391541 77.179176 12.806219 -12.314711 1.187426 -19.613359 -34.386458 1.230298 8.885740 86.583739 3.738536 -0.446817 -16.788064 3.416492 -0.080220 0.453962 -0.047373 -14.159016 -45.794510 12.241825 169.233532 79.670685 163.528207 -2.281017 -15.851020 3.270093 -0.810129 -2.598247 -0.372322
-17.823186 54.913943 27.246870 -175.060018 -32.395774 -10.634990 -0.110708 13.403943 5.505716 -0.110422 7.762811 2.077329 -0.089245 9.681983 2.602255 -0.110417 7.760552 2.077713 -2.942405 19.273449 -1.007069 -2.890293 -5.347647 -0.398318 0.934295 5.736550 -2.154235 -18.746416 -8.408194 7.479439 8.795621 -78.683698 4.754177 9.543194 -10.634348 -11.785297 -8.998780 3.978140 -3.710742 3.512184 -2.840342 -2.214934 -71.386923 -77.400963 77.384821 12.779673 -12.289996 1.179619 -19.627318 -34.401815 1.230952 8.957334 86.593293 3.810954 -0.438638 -16.795932 3.408405 -0.080481 0.455440 -0.047018 -14.169983 -45.804368 12.253231 169.259806 79.670426 163.550275 -2.273338 -15.853878 3.270834 -0.813383 -2.598000 -0.377132
-17.820459 54.924318 27.245875 -175.068062 -32.376020 -10.633396 -0.105072 13.398938 5.508227 -0.110672 7.764516 2.076706 -0.094530 9.686683 2.601562 -0.110630 7.773974 2.076387 -2.938789 19.221249 -1.023724 -2.880636 -5.430420 -0.451330 0.945742 5.731078 -2.151702 -18.750051 -8.417884 7.492253 8.691175 -78.698941 4.840320 9.502331 -10.628010 -11.820417 -9.000993 3.955727 -3.707873 3.520530 -2.851302 -2.260111 -71.547630 -77.394695 77.565271 12.767152 -12.272081 1.170070 -19.635614 -34.425145 1.235028 8.993556 86.602303 3.855911 -0.433319 -16.801841 3.401429 -0.077124 0.456563 -0.047939 -14.187003 -45.822609 12.270330 169.255514 79.668469 163.546306 -2.273380 -15.859159 3.265160 -0.814621 -2.593706 -0.374656
-17.815911 54.935529 27.243434 -175.069058 -32.368459 -10.645374 -0.100871 13.398748 5.520978 -0.110620 7.771709 2.073652 -0.093646 9.700066 2.601958 -0.110010 7.756952 2.078961 -2.938915 19.192978 -1.040735 -2.852645 -5.516710 -0.499123 0.952037 5.757296 -2.151901 -18.756130 -8.443310 7.506603 8.743067 -78.679178 4.716954 9.505914 -10.618662 -11.852724 -9.009729 3.955098 -3.709150 3.524900 -2.867803 -2.299665 -71.687775 -77.378550 77.726680 12.798499 -12.298510 1.177255 -19.663288 -34.428810 1.253546 9.141142 86.609105 4.002374 -0.436603 -16.807065 3.394743 -0.070413 0.456219 -0.051303 -14.212646 -45.830025 12.291019 169.151762 79.655770 163.452834 -2.283722 -15.854797 3.249879 -0.814296 -2.601205 -0.374662
-17.812399 54.946548 27.240490 -175.071551 -32.368510 -10.648939 -0.096238 13.405316 5.524626 -0.110781 7.777903 2.069636 -0.092537 9.694729 2.605451 -0.110740 7.765502 2.076163 -2.928252 19.138062 -1.067757 -2.813594 -5.586412 -0.525466 0.957469 5.771281 -2.150074 -18.755461 -8.461851 7.518763 9.043421 -78.658452 4.381367 9.523239 -10.603252 -11.872947 -9.027848 3.985732 -3.727382 3.530962 -2.925894 -2.316244 -71.823733 -77.359915 77.885461 12.795558 -12.276784 1.174260 -19.693696 -34.428781 1.264704 9.389596 86.615346 4.240832 -0.439079 -16.813682 3.383828 -0.071109 0.456454 -0.049758 -14.221157 -45.830483 12.296874 169.111751 79.648673 163.419198 -2.277407 -15.852265 3.240715 -0.820720 -2.607626 -0.376556
-17.808482 54.956441 27.238854 -175.068591 -32.362887 -10.656004 -0.094392 13.410828 5.525803 -0.112719 7.777422 2.070792 -0.096387 9.696508 2.600760 -0.113034 7.766122 2.074589 -2.869783 19.040564 -1.110217 -2.796463 -5.609044 -0.515497 0.968212 5.773583 -2.143300 -18.705698 -8.431946 7.509824 9.332042 -78.681877 4.032284 9.539863 -10.581592 -11.866928 -9.019586 3.987836 -3.723904 3.519721 -2.946627 -2.337179 -72.021717 -77.352369 78.108419 12.793364 -12.239568 1.172582 -19.713395 -34.433345 1.277313 9.463403 86.622737 4.310676 -0.440040 -16.819052 3.379188 -0.079156 0.456338 -0.047257 -14.233662 -45.838454 12.302316 169.064688 79.641104 163.381853 -2.269144 -15.848852 3.231699 -0.829132 -2.613298 -0.378739
